<svg xmlns="http://www.w3.org/2000/svg" id="drag-race-car" width="32" height="32" version="1.1" viewBox="0 0 32 32">
  <g id="layer1" transform="translate(-210)">
    <path id="path1094" d="m 220.08251,10.000021 c -0.70399,0 -1.53001,0.06192 -2.21289,0.564453 l -3.99609,2.941406 -0.82422,-0.0059 c -0.20496,-0.0013 -0.40486,0.03123 -0.58985,0.134766 -0.18498,0.103534 -0.3313,0.288089 -0.39453,0.470703 -0.12645,0.365223 -0.0429,0.677439 0.0449,0.99414 l 0.99024,3.570313 c 0.0323,0.116486 0.0796,0.225283 0.13281,0.330078 h -0.73242 a 0.5,0.5 0 0 0 -0.5,0.5 0.5,0.5 0 0 0 0.5,0.5 h 2.36523 0.13477 1.10547 c 0.32827,1.151413 1.39128,2 2.64453,2 1.25325,0 2.31626,-0.848587 2.64453,-2 h 9.21094 c 0.32827,1.151413 1.39128,2 2.64453,2 1.25325,0 2.31626,-0.848587 2.64453,-2 h 1.34375 c 0.81707,0 1.55106,-0.515807 1.8125,-1.28711 l 0.88086,-2.603515 c 0.26553,-0.783392 -0.28316,-1.62774 -1.10352,-1.722656 l -1.92773,-0.222616 -0.56641,-1.357421 a 0.50005,0.50005 0 0 0 -0.46093,-0.306641 h -2.87305 a 0.50005,0.50005 0 0 0 -0.5,0.5 v 0.65625 l -0.29688,-0.03516 a 0.50004699,0.50004699 0 0 0 -0.0527,-0.0039 h -0.10351 a 0.49999699,0.49999699 0 0 0 -0.11524,-0.04297 c -0.45621,-0.09873 -0.88177,-0.307919 -1.23437,-0.611329 l -2.53711,-2.183594 c -0.58488,-0.503274 -1.33286,-0.779297 -2.10743,-0.779297 z m 0,1 h 5.9707 c 0.53662,0 1.05319,0.191292 1.45508,0.537108 l 2.40039,2.066407 -10.4082,-0.06445 v -2.509765 c 0.18725,-0.02029 0.38255,-0.0293 0.58203,-0.0293 z m -1.58203,0.345703 v 2.1875 l -2.95508,-0.01758 2.91797,-2.146484 c 0.0116,-0.0085 0.0251,-0.01527 0.0371,-0.02344 z m 15,2.154297 h 2.03906 l 0.22266,0.533203 -2.26172,-0.261719 z m -12.5,1.5 h 1.5 a 0.5,0.5 0 0 1 0.5,0.5 0.5,0.5 0 0 1 -0.5,0.5 h -1.5 a 0.5,0.5 0 0 1 -0.5,-0.5 0.5,0.5 0 0 1 0.5,-0.5 z m 16.5,1 h 1 a 0.5,0.5 0 0 1 0.5,0.5 0.5,0.5 0 0 1 -0.5,0.5 h -1 a 0.5,0.5 0 0 1 -0.5,-0.5 0.5,0.5 0 0 1 0.5,-0.5 z m -23.59961,1 h 1.09961 a 0.5,0.5 0 0 1 0.5,0.5 0.5,0.5 0 0 1 -0.5,0.5 h -1.09961 a 0.5,0.5 0 0 1 -0.5,-0.5 0.5,0.5 0 0 1 0.5,-0.5 z m 4.84961,0.5 c 0.97242,0 1.75,0.777578 1.75,1.75 0,0.972421 -0.77758,1.75 -1.75,1.75 -0.97242,0 -1.75,-0.777579 -1.75,-1.75 0,-0.972422 0.77758,-1.75 1.75,-1.75 z m 14.5,0 c 0.97242,0 1.75,0.777578 1.75,1.75 0,0.972421 -0.77758,1.75 -1.75,1.75 -0.97242,0 -1.75,-0.777579 -1.75,-1.75 0,-0.972422 0.77758,-1.75 1.75,-1.75 z m -14.5,0.75 a 1,1 0 0 0 -1,1 1,1 0 0 0 1,1 1,1 0 0 0 1,-1 1,1 0 0 0 -1,-1 z m 14.5,0 a 1,1 0 0 0 -1,1 1,1 0 0 0 1,1 1,1 0 0 0 1,-1 1,1 0 0 0 -1,-1 z" style="color:#000;fill:#000;stroke-linecap:round;stroke-linejoin:round;-inkscape-stroke:none"></path>
  </g>
</svg>
